<svg xmlns="http://www.w3.org/2000/svg" xmlns:xlink="http://www.w3.org/1999/xlink" contentStyleType="text/css" data-diagram-type="CLASS" height="592px" preserveAspectRatio="none" style="width:648px;height:592px;background:#FFFFFF;" version="1.1" viewBox="0 0 648 592" width="648px" zoomAndPan="magnify"><defs/><g><!--cluster model--><g class="cluster" data-entity="model" data-source-line="1" data-uid="ent0002" id="cluster_model"><path d="M8.5,6 L54.0498,6 A3.75,3.75 0 0 1 56.5498,8.5 L63.5498,28.4883 L638.5,28.4883 A2.5,2.5 0 0 1 641,30.9883 L641,583.34 A2.5,2.5 0 0 1 638.5,585.84 L8.5,585.84 A2.5,2.5 0 0 1 6,583.34 L6,8.5 A2.5,2.5 0 0 1 8.5,6" fill="none" style="stroke:#000000;stroke-width:1.5;"/><line style="stroke:#000000;stroke-width:1.5;" x1="6" x2="63.5498" y1="28.4883" y2="28.4883"/><text fill="#000000" font-family="sans-serif" font-size="14" font-weight="bold" lengthAdjust="spacing" textLength="44.5498" x="10" y="21.5352">model</text></g><!--class User--><g class="entity" data-entity="User" data-source-line="3" data-uid="ent0003" id="entity_User"><rect fill="#F1F1F1" height="163.418" rx="2.5" ry="2.5" style="stroke:#181818;stroke-width:0.5;" width="267.582" x="81.21" y="41"/><ellipse cx="195.5684" cy="57" fill="#ADD1B2" rx="11" ry="11" style="stroke:#181818;stroke-width:1;"/><path d="M198.0415,63.1431 Q197.4605,63.4419 196.8213,63.5913 Q196.1822,63.7407 195.4766,63.7407 Q192.9698,63.7407 191.6499,62.0889 Q190.3301,60.437 190.3301,57.3159 Q190.3301,54.1865 191.6499,52.5347 Q192.9698,50.8828 195.4766,50.8828 Q196.1822,50.8828 196.8296,51.0322 Q197.4771,51.1816 198.0415,51.4805 L198.0415,54.2031 Q197.4107,53.6221 196.8172,53.3523 Q196.2237,53.0825 195.5928,53.0825 Q194.2481,53.0825 193.5633,54.1492 Q192.8785,55.2158 192.8785,57.3159 Q192.8785,59.4077 193.5633,60.4744 Q194.2481,61.541 195.5928,61.541 Q196.2237,61.541 196.8172,61.2712 Q197.4107,61.0015 198.0415,60.4204 Z " fill="#000000"/><text fill="#000000" font-family="sans-serif" font-size="14" lengthAdjust="spacing" textLength="30.3652" x="216.0684" y="62.291">User</text><line style="stroke:#181818;stroke-width:0.5;" x1="82.21" x2="347.792" y1="73" y2="73"/><ellipse cx="92.21" cy="86.7441" fill="none" rx="3" ry="3" style="stroke:#038048;stroke-width:1;"/><text fill="#000000" font-family="sans-serif" font-size="14" lengthAdjust="spacing" textLength="91.6152" x="101.21" y="90.5352">id: UUID &#171;PK&#187;</text><ellipse cx="92.21" cy="103.2324" fill="none" rx="3" ry="3" style="stroke:#038048;stroke-width:1;"/><text fill="#000000" font-family="sans-serif" font-size="14" lengthAdjust="spacing" textLength="111.7061" x="101.21" y="107.0234">email: VARCHAR</text><ellipse cx="92.21" cy="119.7207" fill="none" rx="3" ry="3" style="stroke:#038048;stroke-width:1;"/><text fill="#000000" font-family="sans-serif" font-size="14" lengthAdjust="spacing" textLength="139.7539" x="101.21" y="123.5117">password: VARCHAR</text><ellipse cx="92.21" cy="136.209" fill="none" rx="3" ry="3" style="stroke:#038048;stroke-width:1;"/><text fill="#000000" font-family="sans-serif" font-size="14" lengthAdjust="spacing" textLength="141.6543" x="101.21" y="140">username: VARCHAR</text><ellipse cx="92.21" cy="152.6973" fill="none" rx="3" ry="3" style="stroke:#038048;stroke-width:1;"/><text fill="#000000" font-family="sans-serif" font-size="14" lengthAdjust="spacing" textLength="241.582" x="101.21" y="156.4883">accountState: AccountState &#171;Enum&#187;</text><ellipse cx="92.21" cy="169.1855" fill="none" rx="3" ry="3" style="stroke:#038048;stroke-width:1;"/><text fill="#000000" font-family="sans-serif" font-size="14" lengthAdjust="spacing" textLength="84.3213" x="101.21" y="172.9766">avatar: TEXT</text><ellipse cx="92.21" cy="185.6738" fill="none" rx="3" ry="3" style="stroke:#038048;stroke-width:1;"/><text fill="#000000" font-family="sans-serif" font-size="14" lengthAdjust="spacing" textLength="222.0996" x="101.21" y="189.4648">avatarUpdatedAt: LocalDateTime</text><line style="stroke:#181818;stroke-width:0.5;" x1="82.21" x2="347.792" y1="196.418" y2="196.418"/></g><!--class ParticipantRole--><g class="entity" data-entity="ParticipantRole" data-source-line="13" data-uid="ent0004" id="entity_ParticipantRole"><rect fill="#F1F1F1" height="80.9766" rx="2.5" ry="2.5" style="stroke:#181818;stroke-width:0.5;" width="133.4658" x="213.27" y="488.86"/><ellipse cx="228.27" cy="504.86" fill="#EB937F" rx="11" ry="11" style="stroke:#181818;stroke-width:1;"/><path d="M231.8843,511.36 L224.1645,511.36 L224.1645,498.9669 L231.8843,498.9669 L231.8843,501.1251 L226.6133,501.1251 L226.6133,503.798 L231.3862,503.798 L231.3862,505.9562 L226.6133,505.9562 L226.6133,509.2018 L231.8843,509.2018 Z " fill="#000000"/><text fill="#000000" font-family="sans-serif" font-size="14" lengthAdjust="spacing" textLength="101.4658" x="242.27" y="510.151">ParticipantRole</text><line style="stroke:#181818;stroke-width:0.5;" x1="214.27" x2="345.7358" y1="520.86" y2="520.86"/><text fill="#000000" font-family="sans-serif" font-size="14" lengthAdjust="spacing" textLength="46.5801" x="219.27" y="538.3952">ADMIN</text><text fill="#000000" font-family="sans-serif" font-size="14" lengthAdjust="spacing" textLength="89.4482" x="219.27" y="554.8834">PARTICIPANT</text><line style="stroke:#181818;stroke-width:0.5;" x1="214.27" x2="345.7358" y1="561.8366" y2="561.8366"/></g><!--class AccountState--><g class="entity" data-entity="AccountState" data-source-line="18" data-uid="ent0005" id="entity_AccountState"><rect fill="#F1F1F1" height="80.9766" rx="2.5" ry="2.5" style="stroke:#181818;stroke-width:0.5;" width="120.7578" x="21.62" y="306.15"/><ellipse cx="36.62" cy="322.15" fill="#EB937F" rx="11" ry="11" style="stroke:#181818;stroke-width:1;"/><path d="M40.2343,328.65 L32.5145,328.65 L32.5145,316.2569 L40.2343,316.2569 L40.2343,318.4151 L34.9633,318.4151 L34.9633,321.088 L39.7362,321.088 L39.7362,323.2462 L34.9633,323.2462 L34.9633,326.4918 L40.2343,326.4918 Z " fill="#000000"/><text fill="#000000" font-family="sans-serif" font-size="14" lengthAdjust="spacing" textLength="88.7578" x="50.62" y="327.441">AccountState</text><line style="stroke:#181818;stroke-width:0.5;" x1="22.62" x2="141.3778" y1="338.15" y2="338.15"/><text fill="#000000" font-family="sans-serif" font-size="14" lengthAdjust="spacing" textLength="79.2832" x="27.62" y="355.6852">UNVERIFIED</text><text fill="#000000" font-family="sans-serif" font-size="14" lengthAdjust="spacing" textLength="59.2402" x="27.62" y="372.1734">VERIFIED</text><line style="stroke:#181818;stroke-width:0.5;" x1="22.62" x2="141.3778" y1="379.1266" y2="379.1266"/></g><!--class Activity--><g class="entity" data-entity="Activity" data-source-line="23" data-uid="ent0006" id="entity_Activity"><rect fill="#F1F1F1" height="146.9297" rx="2.5" ry="2.5" style="stroke:#181818;stroke-width:0.5;" width="199.7354" x="404.13" y="49.25"/><ellipse cx="474.7692" cy="65.25" fill="#ADD1B2" rx="11" ry="11" style="stroke:#181818;stroke-width:1;"/><path d="M477.2423,71.3931 Q476.6613,71.6919 476.0221,71.8413 Q475.3829,71.9907 474.6774,71.9907 Q472.1705,71.9907 470.8507,70.3389 Q469.5309,68.687 469.5309,65.5659 Q469.5309,62.4365 470.8507,60.7847 Q472.1705,59.1328 474.6774,59.1328 Q475.3829,59.1328 476.0304,59.2822 Q476.6779,59.4316 477.2423,59.7305 L477.2423,62.4531 Q476.6114,61.8721 476.0179,61.6023 Q475.4244,61.3325 474.7936,61.3325 Q473.4488,61.3325 472.764,62.3992 Q472.0792,63.4658 472.0792,65.5659 Q472.0792,67.6577 472.764,68.7244 Q473.4488,69.791 474.7936,69.791 Q475.4244,69.791 476.0179,69.5212 Q476.6114,69.2515 477.2423,68.6704 Z " fill="#000000"/><text fill="#000000" font-family="sans-serif" font-size="14" lengthAdjust="spacing" textLength="49.957" x="495.2692" y="70.541">Activity</text><line style="stroke:#181818;stroke-width:0.5;" x1="405.13" x2="602.8654" y1="81.25" y2="81.25"/><ellipse cx="415.13" cy="94.9941" fill="none" rx="3" ry="3" style="stroke:#038048;stroke-width:1;"/><text fill="#000000" font-family="sans-serif" font-size="14" lengthAdjust="spacing" textLength="91.6152" x="424.13" y="98.7852">id: UUID &#171;PK&#187;</text><ellipse cx="415.13" cy="111.4824" fill="none" rx="3" ry="3" style="stroke:#038048;stroke-width:1;"/><text fill="#000000" font-family="sans-serif" font-size="14" lengthAdjust="spacing" textLength="112.3008" x="424.13" y="115.2734">name: VARCHAR</text><ellipse cx="415.13" cy="127.9707" fill="none" rx="3" ry="3" style="stroke:#038048;stroke-width:1;"/><text fill="#000000" font-family="sans-serif" font-size="14" lengthAdjust="spacing" textLength="118.9932" x="424.13" y="131.7617">description: TEXT</text><ellipse cx="415.13" cy="144.459" fill="none" rx="3" ry="3" style="stroke:#038048;stroke-width:1;"/><text fill="#000000" font-family="sans-serif" font-size="14" lengthAdjust="spacing" textLength="129.1309" x="424.13" y="148.25">location: VARCHAR</text><ellipse cx="415.13" cy="160.9473" fill="none" rx="3" ry="3" style="stroke:#038048;stroke-width:1;"/><text fill="#000000" font-family="sans-serif" font-size="14" lengthAdjust="spacing" textLength="173.7354" x="424.13" y="164.7383">startTime: LocalDateTime</text><ellipse cx="415.13" cy="177.4355" fill="none" rx="3" ry="3" style="stroke:#038048;stroke-width:1;"/><text fill="#000000" font-family="sans-serif" font-size="14" lengthAdjust="spacing" textLength="167.9658" x="424.13" y="181.2266">endTime: LocalDateTime</text><line style="stroke:#181818;stroke-width:0.5;" x1="405.13" x2="602.8654" y1="188.1797" y2="188.1797"/></g><!--class UserActivity--><g class="entity" data-entity="UserActivity" data-source-line="32" data-uid="ent0007" id="entity_UserActivity"><rect fill="#F1F1F1" height="113.9531" rx="2.5" ry="2.5" style="stroke:#181818;stroke-width:0.5;" width="180.2461" x="189.88" y="289.67"/><ellipse cx="235.5919" cy="305.67" fill="#ADD1B2" rx="11" ry="11" style="stroke:#181818;stroke-width:1;"/><path d="M238.0651,311.8131 Q237.484,312.1119 236.8448,312.2613 Q236.2057,312.4107 235.5001,312.4107 Q232.9933,312.4107 231.6735,310.7589 Q230.3536,309.107 230.3536,305.9859 Q230.3536,302.8565 231.6735,301.2047 Q232.9933,299.5528 235.5001,299.5528 Q236.2057,299.5528 236.8531,299.7022 Q237.5006,299.8516 238.0651,300.1505 L238.0651,302.8731 Q237.4342,302.2921 236.8407,302.0223 Q236.2472,301.7525 235.6163,301.7525 Q234.2716,301.7525 233.5868,302.8192 Q232.902,303.8858 232.902,305.9859 Q232.902,308.0777 233.5868,309.1444 Q234.2716,310.211 235.6163,310.211 Q236.2472,310.211 236.8407,309.9412 Q237.4342,309.6715 238.0651,309.0904 Z " fill="#000000"/><text fill="#000000" font-family="sans-serif" font-size="14" lengthAdjust="spacing" textLength="80.3223" x="256.0919" y="310.961">UserActivity</text><line style="stroke:#181818;stroke-width:0.5;" x1="190.88" x2="369.1261" y1="321.67" y2="321.67"/><ellipse cx="200.88" cy="335.4141" fill="none" rx="3" ry="3" style="stroke:#038048;stroke-width:1;"/><text fill="#000000" font-family="sans-serif" font-size="14" lengthAdjust="spacing" textLength="91.6152" x="209.88" y="339.2052">id: UUID &#171;PK&#187;</text><ellipse cx="200.88" cy="351.9024" fill="none" rx="3" ry="3" style="stroke:#038048;stroke-width:1;"/><text fill="#000000" font-family="sans-serif" font-size="14" lengthAdjust="spacing" textLength="120.7227" x="209.88" y="355.6934">userId: UUID &#171;FK&#187;</text><ellipse cx="200.88" cy="368.3907" fill="none" rx="3" ry="3" style="stroke:#038048;stroke-width:1;"/><text fill="#000000" font-family="sans-serif" font-size="14" lengthAdjust="spacing" textLength="106.8457" x="209.88" y="372.1817">activity: Activity</text><ellipse cx="200.88" cy="384.879" fill="none" rx="3" ry="3" style="stroke:#038048;stroke-width:1;"/><text fill="#000000" font-family="sans-serif" font-size="14" lengthAdjust="spacing" textLength="154.2461" x="209.88" y="388.67">role: RoleType &#171;Enum&#187;</text><line style="stroke:#181818;stroke-width:0.5;" x1="190.88" x2="369.1261" y1="395.6231" y2="395.6231"/></g><!--class ActivityComment--><g class="entity" data-entity="ActivityComment" data-source-line="39" data-uid="ent0008" id="entity_ActivityComment"><rect fill="#F1F1F1" height="130.4414" rx="2.5" ry="2.5" style="stroke:#181818;stroke-width:0.5;" width="207.0361" x="411.48" y="281.42"/><ellipse cx="452.9975" cy="297.42" fill="#ADD1B2" rx="11" ry="11" style="stroke:#181818;stroke-width:1;"/><path d="M455.4706,303.5631 Q454.8896,303.8619 454.2504,304.0113 Q453.6113,304.1607 452.9057,304.1607 Q450.3988,304.1607 449.079,302.5089 Q447.7592,300.857 447.7592,297.7359 Q447.7592,294.6065 449.079,292.9547 Q450.3988,291.3028 452.9057,291.3028 Q453.6113,291.3028 454.2587,291.4522 Q454.9062,291.6016 455.4706,291.9005 L455.4706,294.6231 Q454.8398,294.0421 454.2463,293.7723 Q453.6528,293.5025 453.0219,293.5025 Q451.6772,293.5025 450.9924,294.5692 Q450.3075,295.6358 450.3075,297.7359 Q450.3075,299.8277 450.9924,300.8944 Q451.6772,301.961 453.0219,301.961 Q453.6528,301.961 454.2463,301.6912 Q454.8398,301.4215 455.4706,300.8404 Z " fill="#000000"/><text fill="#000000" font-family="sans-serif" font-size="14" lengthAdjust="spacing" textLength="116.1084" x="472.8903" y="302.711">ActivityComment</text><line style="stroke:#181818;stroke-width:0.5;" x1="412.48" x2="617.5161" y1="313.42" y2="313.42"/><ellipse cx="422.48" cy="327.1641" fill="none" rx="3" ry="3" style="stroke:#038048;stroke-width:1;"/><text fill="#000000" font-family="sans-serif" font-size="14" lengthAdjust="spacing" textLength="91.6152" x="431.48" y="330.9552">id: UUID &#171;PK&#187;</text><ellipse cx="422.48" cy="343.6524" fill="none" rx="3" ry="3" style="stroke:#038048;stroke-width:1;"/><text fill="#000000" font-family="sans-serif" font-size="14" lengthAdjust="spacing" textLength="120.7227" x="431.48" y="347.4434">userId: UUID &#171;FK&#187;</text><ellipse cx="422.48" cy="360.1407" fill="none" rx="3" ry="3" style="stroke:#038048;stroke-width:1;"/><text fill="#000000" font-family="sans-serif" font-size="14" lengthAdjust="spacing" textLength="139.3984" x="431.48" y="363.9317">activityId: UUID &#171;FK&#187;</text><ellipse cx="422.48" cy="376.629" fill="none" rx="3" ry="3" style="stroke:#038048;stroke-width:1;"/><text fill="#000000" font-family="sans-serif" font-size="14" lengthAdjust="spacing" textLength="106.5518" x="431.48" y="380.42">comment: TEXT</text><ellipse cx="422.48" cy="393.1173" fill="none" rx="3" ry="3" style="stroke:#038048;stroke-width:1;"/><text fill="#000000" font-family="sans-serif" font-size="14" lengthAdjust="spacing" textLength="181.0361" x="431.48" y="396.9083">timestamp: LocalDateTime</text><line style="stroke:#181818;stroke-width:0.5;" x1="412.48" x2="617.5161" y1="403.8614" y2="403.8614"/></g><!--reverse link User to UserActivity--><g class="link" data-entity-1="User" data-entity-2="UserActivity" data-source-line="49" data-uid="lnk9" id="link_User_UserActivity"><path codeLine="49" d="M205.2177,216.5978 C205.5177,232.4078 207.23,236.65 212,251.42 C216.25,264.57 223.09,277.43 230.84,289.21" fill="none" id="User-backto-UserActivity" style="stroke:#181818;stroke-width:1;"/><polygon fill="none" points="204.99,204.6,201.1046,210.6748,205.2177,216.5978,209.1031,210.523,204.99,204.6" style="stroke:#181818;stroke-width:1;"/><text fill="#000000" font-family="sans-serif" font-size="13" lengthAdjust="spacing" textLength="89.7495" x="213" y="247.9884">participates in</text><text fill="#000000" font-family="sans-serif" font-size="13" lengthAdjust="spacing" textLength="8.2202" x="195.7954" y="224.8637">1</text><text fill="#000000" font-family="sans-serif" font-size="13" lengthAdjust="spacing" textLength="22.7119" x="201.551" y="278.8831">0..*</text></g><!--reverse link Activity to UserActivity--><g class="link" data-entity-1="Activity" data-entity-2="UserActivity" data-source-line="50" data-uid="lnk10" id="link_Activity_UserActivity"><path codeLine="50" d="M469.6717,207.2017 C459.8017,226.4817 452.88,235.61 438,251.42 C432.04,257.76 402.51,275.78 370.56,294.39" fill="none" id="Activity-backto-UserActivity" style="stroke:#181818;stroke-width:1;"/><polygon fill="none" points="475.14,196.52,468.8453,200.0381,469.6717,207.2017,475.9664,203.6836,475.14,196.52" style="stroke:#181818;stroke-width:1;"/><text fill="#000000" font-family="sans-serif" font-size="13" lengthAdjust="spacing" textLength="52.3618" x="451.49" y="247.9884">includes</text><text fill="#000000" font-family="sans-serif" font-size="13" lengthAdjust="spacing" textLength="8.2202" x="464.0187" y="216.8526">1</text><text fill="#000000" font-family="sans-serif" font-size="13" lengthAdjust="spacing" textLength="22.7119" x="378.0442" y="303.683">0..*</text></g><!--link UserActivity to ParticipantRole--><g class="link" data-entity-1="UserActivity" data-entity-2="ParticipantRole" data-source-line="51" data-uid="lnk11" id="link_UserActivity_ParticipantRole"><path codeLine="51" d="M280,403.83 C280,431.29 280,457.68 280,482.54" fill="none" id="UserActivity-to-ParticipantRole" style="stroke:#181818;stroke-width:1;"/><polygon fill="#181818" points="280,488.54,284,479.54,280,483.54,276,479.54,280,488.54" style="stroke:#181818;stroke-width:1;"/><text fill="#000000" font-family="sans-serif" font-size="13" lengthAdjust="spacing" textLength="109.9985" x="281" y="455.4284">is assigned a role</text></g><!--link User to AccountState--><g class="link" data-entity-1="User" data-entity-2="AccountState" data-source-line="52" data-uid="lnk12" id="link_User_AccountState"><path codeLine="52" d="M101.04,204.63 C93.52,213.87 86.97,223.81 82,234.42 C71.67,256.45 70.8335,277.7783 73.3335,299.8083" fill="none" id="User-to-AccountState" style="stroke:#181818;stroke-width:1;"/><polygon fill="#181818" points="74.01,305.77,76.9697,296.3764,73.4462,300.8019,69.0207,297.2784,74.01,305.77" style="stroke:#181818;stroke-width:1;"/><text fill="#000000" font-family="sans-serif" font-size="13" lengthAdjust="spacing" textLength="116.4668" x="83" y="247.9884">is assigned a state</text></g><!--reverse link User to ActivityComment--><g class="link" data-entity-1="User" data-entity-2="ActivityComment" data-source-line="53" data-uid="lnk13" id="link_User_ActivityComment"><path codeLine="53" d="M294.6927,213.1979 C311.1527,229.6679 320.74,237.66 339,251.42 C352.42,261.54 380.94,277.52 411.19,293.46" fill="none" id="User-backto-ActivityComment" style="stroke:#181818;stroke-width:1;"/><polygon fill="none" points="286.21,204.71,287.6221,211.7815,294.6927,213.1979,293.2806,206.1264,286.21,204.71" style="stroke:#181818;stroke-width:1;"/><text fill="#000000" font-family="sans-serif" font-size="13" lengthAdjust="spacing" textLength="89.7495" x="340" y="247.9884">participates in</text><text fill="#000000" font-family="sans-serif" font-size="13" lengthAdjust="spacing" textLength="8.2202" x="283.9952" y="224.9832">1</text><text fill="#000000" font-family="sans-serif" font-size="13" lengthAdjust="spacing" textLength="22.7119" x="380.7849" y="286.5835">0..*</text></g><!--reverse link Activity to ActivityComment--><g class="link" data-entity-1="Activity" data-entity-2="ActivityComment" data-source-line="54" data-uid="lnk14" id="link_Activity_ActivityComment"><path codeLine="54" d="M530.2766,208.2462 C533.9266,226.0762 533.61,233.45 532,251.42 C531.14,261.02 529.8,271.11 528.24,280.97" fill="none" id="Activity-backto-ActivityComment" style="stroke:#181818;stroke-width:1;"/><polygon fill="none" points="527.87,196.49,525.1546,203.1703,530.2766,208.2462,532.992,201.5659,527.87,196.49" style="stroke:#181818;stroke-width:1;"/><text fill="#000000" font-family="sans-serif" font-size="13" lengthAdjust="spacing" textLength="52.3618" x="533.54" y="247.9884">includes</text><text fill="#000000" font-family="sans-serif" font-size="13" lengthAdjust="spacing" textLength="8.2202" x="521.7746" y="216.8197">1</text><text fill="#000000" font-family="sans-serif" font-size="13" lengthAdjust="spacing" textLength="22.7119" x="506.5241" y="270.5523">0..*</text></g><!--SRC=[hLDTQuCm57tlhxZuKjYmRAzI2b8jasr5d8wzXXYwC8t1n8uo_E-xMkTNTQomF0HoplqyzqOI-a4E3D8iPWbyBHQ0XoP4AOWKon61vjpos88eyXnOh_t7pQOZM4fuOi6h7MmVxA339KRvpF9uWYemjY0fcw08fLaXz8ic6ccxzyB4hYZIVcfo99ha5eJkMpX68ncZKsnh2vuoIX87No5FMMrNrdTzCOm9FiarfrmIeOCiORs-RUVPsxSltmv2R-lvzZviudGn1hLs0QBzgnjuEyzrMcW0b7tHRQhvaUlJduIVKJ1cYkPSQfw9iJ892d76BxmKIgOhVQRaEizPn7DyELwSg_geji7hoDs094qagzMcut8SbGNLmCAJ7Et7fApRB4sPqFzNrQm1FMSQ3q2ZOgXqAgTLR8fU1YofvwJUkLJB6gk_et5lG6QQODojLZV6K6aBvCyIQwQ0YzgjfNztvO8c1IvEcwhbJ7DpyJlGNW7goW-2nK2WcaDNPEKn-0jZSrMXiqsDPtLTNvVURMkByXi0]--></g></svg>